<svg xmlns="http://www.w3.org/2000/svg" viewBox="0 0 568.25 563.2"><defs><style>.cls-1{fill:#7438f2;}</style></defs><g id="Layer_2" data-name="Layer 2"><g id="Layer_1-2" data-name="Layer 1"><path class="cls-1" d="M52.58,373.84c49.3,0,68.5,16.08,68.5,39.26,0,17.65-11.07,29.75-34.42,35.12l2.25,2.24c13.49,14,23.53,20.42,43.59,20.42l-1.38,22.31c-33.56,0-45.15-7.61-67.29-31.31l-9-9.69H27.68V493H0V375.91C18.16,374.53,32.69,373.84,52.58,373.84Zm39.27,39.09c0-11.94-11.24-19.55-37.71-19.55-8.65,0-18,.35-26.46,1v38.05h22C79.05,432.47,91.85,425.9,91.85,412.93Z"/><path class="cls-1" d="M145.65,493V375.57h111.4l-1.21,20.93H173.33v27.67h76.28l-1.38,19.89h-74.9v28.2h83.72L255.84,493Z"/><path class="cls-1" d="M324.86,373.84c58.47,0,84.59,18.33,84.59,60.37,0,41.34-23.87,60.54-84.59,60.54-15.57,0-30.79-.52-50.85-2.08V375.74C291.65,374.35,310.33,373.84,324.86,373.84Zm-23.18,21.79V473.3c9.35.69,16.78.86,27.16.86,37.71,0,51.38-12.8,51.38-40,0-28-15.57-39.62-51.38-39.62C318.64,394.59,311.37,394.94,301.68,395.63Z"/><path class="cls-1" d="M495.6,372.45c41.17,0,72.65,17.47,72.65,61.93s-31.48,61.75-72.65,61.75c-41.34,0-73-17.3-73-61.75S454.26,372.45,495.6,372.45Zm0,103.44c26.12,0,43.76-12.63,43.76-41.51,0-28.72-17.64-41.52-43.76-41.52-26.29,0-43.76,12.8-43.76,41.52C451.84,463.26,469.31,475.89,495.6,475.89Z"/><path class="cls-1" d="M118.69,536.64v26.3h-5.28V545.83l-7,17.11h-4l-7.08-17.11v17.11H90v-26.3h6l8.37,19.55,8.36-19.55Z"/><path class="cls-1" d="M129.16,540.9v6.59H138v4.18h-8.85v7h10v4.3H123.88V536.6h15.26v4.3Z"/><path class="cls-1" d="M172.6,536.64v26.3h-5.27V545.83l-7.05,17.11h-4l-7.09-17.11v17.11h-5.27v-26.3h6l8.36,19.55,8.37-19.55Z"/><path class="cls-1" d="M183.22,561.47a13,13,0,0,1-4.89-4.8,14.19,14.19,0,0,1,0-13.87,12.81,12.81,0,0,1,4.89-4.8,14.14,14.14,0,0,1,13.59,0,12.8,12.8,0,0,1,4.86,4.8,14.33,14.33,0,0,1,0,13.87,12.85,12.85,0,0,1-4.88,4.8,14.17,14.17,0,0,1-13.57,0Zm11-4.05a7.45,7.45,0,0,0,2.83-3.07,10.2,10.2,0,0,0,1-4.64,10.07,10.07,0,0,0-1-4.61,7.37,7.37,0,0,0-2.83-3,8.89,8.89,0,0,0-8.38,0,7.29,7.29,0,0,0-2.85,3,9.94,9.94,0,0,0-1,4.61,10.07,10.07,0,0,0,1,4.64,7.36,7.36,0,0,0,2.85,3.07,8.74,8.74,0,0,0,8.38,0Z"/><path class="cls-1" d="M220.94,562.94l-5.8-10.25h-2.49v10.25h-5.28v-26.3h9.88a11.65,11.65,0,0,1,5.2,1.07,7.61,7.61,0,0,1,3.22,2.9,8,8,0,0,1,1.07,4.09,7.77,7.77,0,0,1-1.51,4.69,7.63,7.63,0,0,1-4.48,2.88L227,562.94Zm-8.29-14.21h4.41a4.4,4.4,0,0,0,3.2-1,3.87,3.87,0,0,0,1.06-2.88,3.69,3.69,0,0,0-1.06-2.81,4.48,4.48,0,0,0-3.2-1h-4.41Z"/><path class="cls-1" d="M252.44,536.64l-8.89,17.14v9.16h-5.28v-9.16l-8.93-17.14h5.95l5.66,12,5.61-12Z"/><path class="cls-1" d="M282.35,536.64v4.26h-7v22h-5.27v-22h-7v-4.26Z"/><path class="cls-1" d="M308,536.64v26.3h-5.27V551.75H291.47v11.19h-5.28v-26.3h5.28v10.81h11.27V536.64Z"/><path class="cls-1" d="M329.33,557.93H318.86l-1.73,5h-5.54l9.46-26.34h6.14l9.45,26.34h-5.57Zm-1.43-4.22-3.8-11-3.81,11Z"/><path class="cls-1" d="M358.08,536.64v4.26h-7v22H345.8v-22h-7v-4.26Z"/><path class="cls-1" d="M376.17,558.76h8.66v4.18H370.89v-26.3h5.28Z"/><path class="cls-1" d="M404.31,557.93H393.84l-1.74,5h-5.53L396,536.6h6.14l9.46,26.34h-5.57Zm-1.43-4.22-3.81-11-3.8,11Z"/><path class="cls-1" d="M419.29,562.26a8.2,8.2,0,0,1-3.49-2.71,7.22,7.22,0,0,1-1.32-4.18h5.66a3.6,3.6,0,0,0,1.15,2.56,4,4,0,0,0,2.84.94A4.37,4.37,0,0,0,427,558a2.89,2.89,0,0,0,1.06-2.31,2.7,2.7,0,0,0-.72-1.93,5,5,0,0,0-1.79-1.18,29,29,0,0,0-3-1,33.31,33.31,0,0,1-4.16-1.49,7.32,7.32,0,0,1-2.75-2.22,6.34,6.34,0,0,1-1.15-4,7.11,7.11,0,0,1,1.17-4.07,7.41,7.41,0,0,1,3.28-2.65,11.81,11.81,0,0,1,4.82-.93,10.46,10.46,0,0,1,6.61,2,7.34,7.34,0,0,1,2.81,5.52h-5.8a3.07,3.07,0,0,0-1.15-2.24,4.36,4.36,0,0,0-2.85-.89,3.72,3.72,0,0,0-2.47.79,2.89,2.89,0,0,0-.92,2.3,2.34,2.34,0,0,0,.7,1.75,5,5,0,0,0,1.73,1.13,28.61,28.61,0,0,0,2.92,1,31.89,31.89,0,0,1,4.18,1.51,7.55,7.55,0,0,1,2.79,2.26,6.28,6.28,0,0,1,1.17,4,7.55,7.55,0,0,1-1.09,3.92,7.79,7.79,0,0,1-3.21,2.88,11,11,0,0,1-5,1.07A12.45,12.45,0,0,1,419.29,562.26Z"/><path class="cls-1" d="M456,536.64v4.26h-7v22h-5.28v-22h-7v-4.26Z"/><path class="cls-1" d="M464,562.26a8.11,8.11,0,0,1-3.48-2.71,7.08,7.08,0,0,1-1.32-4.18h5.65a3.68,3.68,0,0,0,1.15,2.56,4.07,4.07,0,0,0,2.85.94,4.39,4.39,0,0,0,2.9-.89,2.88,2.88,0,0,0,1-2.31,2.74,2.74,0,0,0-.71-1.93,5.13,5.13,0,0,0-1.79-1.18,29.87,29.87,0,0,0-3-1,32.94,32.94,0,0,1-4.17-1.49,7.39,7.39,0,0,1-2.75-2.22,6.4,6.4,0,0,1-1.15-4,7.11,7.11,0,0,1,1.17-4.07,7.41,7.41,0,0,1,3.28-2.65,11.88,11.88,0,0,1,4.82-.93,10.47,10.47,0,0,1,6.62,2,7.33,7.33,0,0,1,2.8,5.52h-5.8a3,3,0,0,0-1.15-2.24,4.31,4.31,0,0,0-2.84-.89,3.7,3.7,0,0,0-2.47.79,2.86,2.86,0,0,0-.92,2.3,2.37,2.37,0,0,0,.69,1.75,5.09,5.09,0,0,0,1.74,1.13,28.61,28.61,0,0,0,2.92,1,32.44,32.44,0,0,1,4.18,1.51,7.55,7.55,0,0,1,2.79,2.26,6.34,6.34,0,0,1,1.16,4,7.46,7.46,0,0,1-1.09,3.92,7.76,7.76,0,0,1-3.2,2.88,11,11,0,0,1-5,1.07A12.46,12.46,0,0,1,464,562.26Z"/><path class="cls-1" d="M341.48,224.85c1,21.54-15.74,40.76-38,43.71a35.08,35.08,0,0,1-5.21.35,38.55,38.55,0,0,1-37.55-47.4,43.15,43.15,0,0,1,4.72-11.64c5-8.92,12.09-16.05,18.38-22.34,8.29-8.3,15.43-15.48,16.85-25.38.81-6.28-1.73-13.55-6.19-17.52a9.81,9.81,0,0,0-4.11-1.83v-23A31.37,31.37,0,0,1,309.24,128c9.9,8.83,15.21,23.41,13.51,37.19-2.49,17.44-13.51,28.45-23.23,38.13-5.75,5.8-11.19,11.24-14.76,17.61a22.16,22.16,0,0,0-2.41,5.94,15.65,15.65,0,0,0,3.7,14.35,16.09,16.09,0,0,0,14.23,5.36c11-1.48,19.4-10.75,19-20.65Z"/><path class="cls-1" d="M324,99.18l-7.4,21c-25.07-8.83-34.39-31.57-37.82-45.57a39,39,0,0,0,4,76.57v22.43A61.32,61.32,0,0,1,288,51.24h10.48l.63,10.43C299.19,61.94,301.51,91.24,324,99.18Z"/><path class="cls-1" d="M284.12,319.34c-87.82,0-159.26-71.45-159.26-159.27S196.3.81,284.12.81,443.39,72.25,443.39,160.07,371.94,319.34,284.12,319.34Zm0-297c-76,0-137.77,61.8-137.77,137.77s61.8,137.78,137.77,137.78S421.9,236,421.9,160.07,360.09,22.3,284.12,22.3Z"/><path class="cls-1" d="M424.84,8h5.78V9.06h-2.27v6.06H427.1V9.06h-2.26Z"/><path class="cls-1" d="M431.43,8h1.76l2,5.59h0L437.1,8h1.74v7.14h-1.19V9.61h0l-2,5.51h-1l-2-5.51h0v5.51h-1.19Z"/><path class="cls-1" d="M431.84,23.11a11.56,11.56,0,1,1,11.55-11.56A11.57,11.57,0,0,1,431.84,23.11Zm0-21.57a10,10,0,1,0,10,10A10,10,0,0,0,431.84,1.54Z"/></g></g></svg>